This is my own rip.

There is a small logo for 10 seconds every 30 minutes.

General
Unique ID                        : 232874882113995450950342599963986014863 (0xAF321224EC44DD8FB07E5F8A4ECAB28F)
Format                           : Matroska
Format version                   : Version 2
File size                        : 2.64 GiB
Duration                         : 1h 37mn
Overall bit rate mode            : Variable
Overall bit rate                 : 3 865 Kbps
Encoded date                     : UTC 2012-12-24 18:59:11
Writing application              : mkvmerge v5.8.0 ('No Sleep / Pillow') built on Sep  2 2012 15:37:04
Writing library                  : libebml v1.2.3 + libmatroska v1.3.0

Video
ID                               : 1
Format                           : AVC
Format/Info                      : Advanced Video Codec
Format profile                   : High@L4.1
Format settings, CABAC           : Yes
Format settings, ReFrames        : 7 frames
Codec ID                         : V_MPEG4/ISO/AVC
Duration                         : 1h 37mn
Bit rate mode                    : Variable
Bit rate                         : 3 404 Kbps
Maximum bit rate                 : 17.0 Mbps
Width                            : 1 280 pixels
Height                           : 692 pixels
Display aspect ratio             : 1.850
Frame rate                       : 23.976 fps
Color space                      : YUV
Chroma subsampling               : 4:2:0
Bit depth                        : 8 bits
Scan type                        : Progressive
Bits/(Pixel*Frame)               : 0.160
Stream size                      : 2.33 GiB (88%)
Writing library                  : x264 core 129 r2230 1cffe9f
Language                         : English
Default                          : Yes
Forced                           : No

Audio
ID                               : 2
Format                           : AC-3
Format/Info                      : Audio Coding 3
Mode extension                   : CM (complete main)
Codec ID                         : A_AC3
Duration                         : 1h 37mn
Bit rate mode                    : Constant
Bit rate                         : 384 Kbps
Channel(s)                       : 6 channels
Channel positions                : Front: L C R, Side: L R, LFE
Sampling rate                    : 48.0 KHz
Bit depth                        : 16 bits
Compression mode                 : Lossy
Stream size                      : 269 MiB (10%)
Language                         : English
Default                          : Yes
Forced                           : No

Menu
00:00:00.000                     : Start
00:03:07.896                     : "Hey, a Movie!"
00:05:51.226                     : Fired
00:08:47.318                     : Ninth Class
00:09:57.597                     : "Welcome to Great Britain"
00:12:18.218                     : "Happiness Hotel"
00:17:25.294                     : Lady Holiday
00:18:39.368                     : "Modeling Is My Life"
00:22:20.714                     : Falling for Kermit
00:25:30.362                     : Beauregard
00:29:10.082                     : "Steppin' Out With a Star"
00:33:12.574                     : 17 Highbrow Street
00:40:22.545                     : "Nightlife"
00:42:18.870                     : The Dubonnet Club
00:46:54.709                     : "The First Time It Happens"
00:52:13.797                     : Negative Development
00:54:20.966                     : Tales of Bernie
00:57:08.133                     : Hamming It Up
00:59:16.386                     : "Couldn't We Ride?"
01:02:07.265                     : A Different Looking Woman
01:04:47.467                     : The Lady Holiday Collection
01:07:15.865                     : "Piggy's Fantasy"
01:10:44.907                     : "Piggy Stole My Necklace!"
01:12:12.286                     : A Potentially Dangerous Mission
01:14:58.536                     : Rosenthal the Mouthpiece
01:22:19.268                     : Two Very Brief Cameos
01:24:03.497                     : Pizza Twins Deliver
01:29:57.873                     : The Heist Goes Away
01:35:08.870                     : End Credits
